<svg xmlns="http://www.w3.org/2000/svg" viewBox="0 0 512 512" width="100%" height="100%">
  <defs>
    <linearGradient id="bgMid" x1="0%" y1="0%" x2="100%" y2="100%">
      <stop offset="0%" stop-color="#64748B" />
      <stop offset="50%" stop-color="#475569" />
      <stop offset="100%" stop-color="#334155" />
    </linearGradient>

    <linearGradient id="gradStem" x1="0%" y1="0%" x2="0%" y2="100%">
      <stop offset="0%" stop-color="#3B82F6" />
      <stop offset="100%" stop-color="#1D4ED8" />
    </linearGradient>

    <linearGradient id="gradTop" x1="0%" y1="0%" x2="100%" y2="0%">
      <stop offset="0%" stop-color="#F43F5E" />
      <stop offset="100%" stop-color="#FB923C" />
    </linearGradient>

    <linearGradient id="gradEye" x1="0%" y1="0%" x2="100%" y2="100%">
      <stop offset="0%" stop-color="#A855F7" />
      <stop offset="100%" stop-color="#D946EF" />
    </linearGradient>
    
    <filter id="glowEye" x="-20%" y="-20%" width="140%" height="140%">
      <feDropShadow dx="0" dy="10" stdDeviation="20" flood-color="#D946EF" flood-opacity="0.45" />
    </filter>
  </defs>

  <rect width="512" height="512" rx="112" fill="url(#bgMid)" />

  <g fill="none" stroke="#94A3B8" stroke-width="4" stroke-linecap="round" stroke-linejoin="round" opacity="0.6">
    <path d="M 80 131 L 80 66 L 145 66" />
    <path d="M 432 131 L 432 66 L 367 66" />
    <path d="M 80 381 L 80 446 L 145 446" />
    <path d="M 432 381 L 432 446 L 367 446" />
  </g>
  <g fill="#CBD5E1" opacity="0.5">
    <circle cx="256" cy="66" r="3.5" />
    <circle cx="256" cy="446" r="3.5" />
    <circle cx="80" cy="256" r="3.5" />
    <circle cx="432" cy="256" r="3.5" />
  </g>

  <g>
    <rect x="118" y="105" width="260" height="94" rx="47" fill="url(#gradTop)" opacity="0.85" />
    <rect x="118" y="105" width="260" height="94" rx="47" fill="none" stroke="#FFFFFF" stroke-width="2" opacity="0.5" transform="translate(0, 1.5)" />
    
    <rect x="118" y="105" width="94" height="302" rx="47" fill="url(#gradStem)" opacity="0.95" />
    <rect x="118" y="105" width="94" height="302" rx="47" fill="none" stroke="#FFFFFF" stroke-width="2" opacity="0.5" transform="translate(1.5, 0)" />
  </g>

  <g>
    <circle cx="269" cy="292" r="73" fill="url(#gradEye)" opacity="0.95" filter="url(#glowEye)" />
    <circle cx="269" cy="292" r="73" fill="none" stroke="#FFFFFF" stroke-width="2" opacity="0.5" transform="translate(0, 1.5)" />
    
    <circle cx="269" cy="292" r="23" fill="#FFFFFF" />
    <circle cx="269" cy="292" r="8" fill="#A855F7" />
    
    <circle cx="352" cy="235" r="7" fill="#FFFFFF" />
    <circle cx="352" cy="235" r="4" fill="#FB923C" />
  </g>

</svg>
